<?xml version="1.0" encoding="utf-8"?>
<!-- Generator: Adobe Illustrator 27.0.1, SVG Export Plug-In . SVG Version: 6.00 Build 0)  -->
<svg version="1.1" id="Layer_1" xmlns="http://www.w3.org/2000/svg" xmlns:xlink="http://www.w3.org/1999/xlink" x="0px" y="0px"
	 viewBox="0 0 969.9 269.6" style="enable-background:new 0 0 969.9 269.6;" xml:space="preserve">
<style type="text/css">
	.st0{fill:none;stroke:#FFFFFF;stroke-width:3;stroke-miterlimit:10;}
	.st1{fill:#FFFFFF;}
</style>
<g id="Layer_1_00000089548685938069770320000000079419589104432256_">
	<g>
		<path class="st0" d="M125.7,71.8h36.5l-4.6,25.8l-8.6,48.6L133,118.3l-17-29.5C111.6,81.2,117,71.8,125.7,71.8z"/>
		<path class="st0" d="M234.3,71.8h60.2c8.7,0,14.2,9.4,9.8,17l-16.2,28.1L263.1,96L234.3,71.8z"/>
		<path class="st0" d="M183.8,206.3l25.2-9.2l41.5-15.1l-14.4,25l-16.1,28c-4.4,7.5-15.2,7.5-19.6,0L183.8,206.3L183.8,206.3z"/>
		<path class="st0" d="M138.8,204.6l5.5-31l26.1,9.5l38.6,14l-25.2,9.2l-30,10.9C145.6,220.2,137.3,213.2,138.8,204.6L138.8,204.6z"
			/>
		<path class="st0" d="M105.5,141.4l27.5-23.1l16.1,27.9l21.3,36.9l-26.1-9.5l-35.4-12.9C100.7,157.7,98.8,147,105.5,141.4
			L105.5,141.4z"/>
		<path class="st0" d="M157.6,97.6l4.6-25.8l5.9-33.4c1.5-8.6,11.7-12.3,18.4-6.7l24.9,20.9l-23,19.3
			C188.4,71.8,157.6,97.6,157.6,97.6z"/>
		<path class="st0" d="M188.4,71.8l23-19.3l23.4-19.6c6.7-5.6,16.9-1.9,18.4,6.7l5.7,32.2H188.4z"/>
		<path class="st0" d="M263.1,96l24.9,20.9l27.7,23.3c6.7,5.6,4.8,16.3-3.4,19.3l-35.8,13l-4.8-27.4L263.1,96L263.1,96z"/>
		<path class="st0" d="M236.1,207l14.4-25l21.3-36.9l4.8,27.4l5.9,33.3c1.5,8.6-6.8,15.6-15,12.6L236.1,207z"/>
		<path class="st0" d="M150.6,137.4l5.5-31.1c1-5.7,4-10.8,8.3-14.5l17.2-14.4c4.4-3.7,9.9-5.7,15.7-5.7h28.1c5.7,0,11.3,2,15.7,5.7
			l15.2,12.8c4.4,3.7,7.3,8.8,8.3,14.5l5.6,31.6c1,5.7,0,11.5-2.9,16.4l-12.4,21.5c-2.9,5-7.4,8.8-12.8,10.7l-24.8,9
			c-5.4,2-11.3,2-16.7,0l-21.9-8c-5.4-2-9.9-5.8-12.8-10.7l-12.4-21.5C150.6,148.9,149.6,143,150.6,137.4L150.6,137.4z"/>
	</g>
	<g>
		<path class="st1" d="M423.6,119c0,0.7-0.2,1.1-0.6,1.1c-1.8,0-3.9-0.1-6.5-0.2c-2.4-0.2-4.4-0.2-6-0.2c-1.6,0-3.6,0.1-5.9,0.2
			c-2.4,0.2-4.5,0.2-6.3,0.2c-0.5,0-0.7-0.4-0.7-1.1c0-0.7,0.2-1,0.6-1.1c3.1-0.4,5.2-0.9,6.3-1.7s1.7-2.2,1.7-4.4v-0.6l-1.7-38.3
			l-19.1,47.8c-0.2,0.4-0.5,0.6-1.1,0.6s-1-0.2-1.1-0.6l-18-45.9l-2.8,36.5c-0.1,0.5-0.1,0.8-0.1,1.2c0,1.8,0.6,3,1.8,3.8
			c1.2,0.8,3.4,1.3,6.5,1.7c0.4,0.1,0.6,0.4,0.6,1.1c0,0.7-0.2,1.1-0.7,1.1c-1.4,0-3.2-0.1-5.6-0.2c-2.2-0.2-3.9-0.2-5.1-0.2
			c-1.3,0-3.1,0.1-5.4,0.2c-2.2,0.2-3.9,0.2-5.1,0.2c-0.4,0-0.6-0.4-0.6-1.1c0-0.7,0.2-1,0.7-1.1c3.3-0.4,5.6-1,6.9-1.9
			c1.3-0.8,2-2.5,2.2-4.8l4.1-37.3c0-0.5,0-0.9,0-1.3c0-1.7-0.6-3-1.8-3.7c-1.2-0.8-3.4-1.3-6.6-1.7c-0.4,0-0.6-0.4-0.6-1.1
			c0-0.3,0.1-0.5,0.2-0.7c0.2-0.2,0.3-0.3,0.5-0.3c1,0,2.4,0.1,4.2,0.2c1.5,0.2,2.7,0.2,3.4,0.2c0.9,0,2.2-0.1,4-0.2
			c1.8-0.2,3.1-0.2,4.1-0.2l17,44l17.5-44c1,0,2.4,0.1,4.1,0.2c1.5,0.2,2.8,0.2,3.7,0.2c1.1,0,2.4-0.1,4-0.2c1.6-0.2,3-0.2,4.2-0.2
			c0.5,0,0.7,0.4,0.7,1.1s-0.2,1.1-0.6,1.1c-3.1,0.4-5.2,0.9-6.3,1.7c-1.1,0.8-1.7,2.2-1.7,4.4v0.7l1.8,37.3
			c0.1,1.8,0.4,3.1,0.8,3.9c0.5,0.7,1.3,1.3,2.5,1.8c1.2,0.4,2.9,0.8,5.1,1C423.4,118,423.6,118.3,423.6,119L423.6,119z"/>
		<path class="st1" d="M483.3,119c0,0.7-0.2,1.1-0.6,1.1c-1.8,0-3.9-0.1-6.2-0.2c-2-0.2-3.7-0.2-5.1-0.2c-1.6,0-3.6,0.1-6,0.2
			c-2.5,0.2-4.6,0.2-6.4,0.2c-0.4,0-0.6-0.4-0.6-1.1c0-0.7,0.2-1.1,0.5-1.1c2.3-0.1,4-0.4,5.1-0.9c1-0.5,1.5-1.3,1.5-2.4
			c0-0.7-0.3-1.8-0.8-3.3L460.1,98h-16.3l-4.5,12.3c-0.6,1.6-0.9,2.9-0.9,3.8c0,2.3,2.1,3.6,6.4,3.8c0.3,0,0.5,0.4,0.5,1.1
			c0,0.7-0.2,1.1-0.6,1.1c-1.6,0-3.3-0.1-5.3-0.2c-1.8-0.2-3.4-0.2-4.9-0.2c-1.1,0-2.6,0.1-4.3,0.2c-1.8,0.2-3.3,0.2-4.6,0.2
			c-0.4,0-0.6-0.3-0.6-1c0-0.7,0.3-1.1,0.9-1.2c2.2-0.2,3.9-0.8,5.2-1.8c1.3-1,2.6-3,4-6.1l18.5-45.5c0.2-0.4,0.5-0.6,1.1-0.6
			c0.6,0,1,0.2,1.2,0.6l16.3,45.5c0.9,2.6,2.2,4.4,3.7,5.7c1.6,1.2,3.7,2,6.3,2.3C483,118,483.3,118.3,483.3,119L483.3,119z
			 M459.3,95.5l-6.9-20.2l-7.5,20.2H459.3z"/>
		<path class="st1" d="M511.8,66.1c0,0.7-0.2,1.1-0.6,1.1c-2.2,0.3-3.9,0.6-5.1,1c-1.2,0.4-2,1-2.4,1.8s-0.7,2.1-0.7,3.9v35
			c0,4.9-1.1,9.7-3.2,14.3c-2.2,4.6-5,8.3-8.5,11.1c-3.5,2.8-7.2,4.2-11,4.2c-2.2,0-4-0.5-5.3-1.4c-1.3-0.9-1.9-2.2-1.9-3.7
			c0-1.6,0.5-2.7,1.6-3.7c1.1-1,2.5-1.5,4.2-1.5c0.8,0,1.6,0.2,2.3,0.5c0.7,0.3,1.5,1.1,2.4,2.1c1.2,1.5,2.4,2.3,3.5,2.3
			c2.4,0,4.4-1.9,5.8-5.7c1.5-3.8,2.2-9.2,2.2-16.2V74c0-1.8-0.2-3.1-0.7-3.9s-1.2-1.3-2.4-1.8c-1.2-0.5-2.9-0.8-5.1-1.1
			c-0.4,0-0.6-0.4-0.6-1.1s0.2-1.1,0.6-1.1c1.8,0,3.9,0.1,6.3,0.2c2.3,0.2,4.3,0.2,5.9,0.2s3.6-0.1,5.9-0.2c2.5-0.2,4.6-0.2,6.3-0.2
			C511.6,65,511.8,65.4,511.8,66.1L511.8,66.1z"/>
		<path class="st1" d="M563.8,107c-2.1,4.6-3.9,8.9-5.2,13.1c-9.9-0.3-17-0.5-21.3-0.5s-11.2,0.2-21.2,0.5c-0.4,0-0.6-0.4-0.6-1.1
			c0-0.7,0.2-1,0.6-1.1c2.2-0.3,3.9-0.6,5-1c1.2-0.4,2-1,2.4-1.8c0.5-0.7,0.7-2,0.7-3.9V74c0-1.8-0.2-3.1-0.7-3.9
			c-0.4-0.8-1.2-1.4-2.4-1.8c-1.2-0.5-2.9-0.8-5.1-1.1c-0.4,0-0.6-0.4-0.6-1.1s0.2-1.1,0.6-1.1c6.7,0.3,13.5,0.5,20.4,0.5
			c7,0,13.8-0.2,20.5-0.5c0.6,4.1,1.5,8.1,2.7,12.1c0,0.5-0.5,0.8-1.4,0.8c-0.5,0-0.7-0.2-0.8-0.6c-2-6.2-6.1-9.3-12.5-9.3h-8
			c-3.1,0-4.6,1.6-4.6,4.7v17.6h10c2.7,0,4.5-0.6,5.4-1.8c0.9-1.2,1.6-3.4,2-6.5c0-0.4,0.4-0.6,1.1-0.6c0.7,0,1.1,0.2,1.1,0.6
			c0,1.3-0.1,3-0.2,5c-0.2,1.9-0.2,3.5-0.2,4.7s0.1,2.8,0.2,4.7c0.2,2.1,0.2,3.7,0.2,5.1c0,0.4-0.4,0.6-1.1,0.6
			c-0.7,0-1.1-0.2-1.1-0.6c-0.4-3.2-1.1-5.5-2.1-6.8s-2.8-1.9-5.3-1.9h-10v19.5c0,3.1,1.5,4.7,4.6,4.7h8.6c3.1,0,6.3-1,9.3-3.1
			c3.1-2,5.4-4.6,6.8-7.7c0.1-0.2,0.3-0.4,0.7-0.4c0.4,0,0.7,0.1,1,0.3S563.8,106.7,563.8,107L563.8,107z"/>
		<path class="st1" d="M613.4,105.5c-1.2,4.6-2.2,9.5-2.9,14.6c-10.1-0.3-17.3-0.5-21.6-0.5c-4.3,0-11.3,0.2-21.3,0.5
			c-0.4,0-0.6-0.4-0.6-1.1c0-0.7,0.2-1,0.6-1.1c3.2-0.4,5.4-1,6.5-1.8c1.2-0.8,1.7-2.5,1.7-4.9V74c0-1.8-0.2-3.2-0.7-3.9
			s-1.3-1.3-2.4-1.8c-1.2-0.4-2.9-0.8-5.1-1c-0.4,0-0.6-0.4-0.6-1.1s0.2-1.1,0.6-1.1c1.8,0,3.9,0.1,6.3,0.2c2.3,0.2,4.3,0.2,5.9,0.2
			c1.6,0,3.6-0.1,5.9-0.2c2.4-0.2,4.5-0.2,6.3-0.2c0.4,0,0.6,0.4,0.6,1.1s-0.2,1.1-0.6,1.1c-2.2,0.3-3.9,0.6-5.1,1s-2,1-2.4,1.8
			c-0.5,0.7-0.7,2-0.7,3.9v38.5c0,3.1,1.5,4.7,4.6,4.7h7.8c3.2,0,6-0.9,8.2-2.6c2.2-1.7,4.5-5,6.7-9.7c0.1-0.2,0.4-0.3,0.8-0.3
			c0.3,0,0.7,0.1,1,0.3C613.2,105,613.4,105.3,613.4,105.5L613.4,105.5z"/>
		<path class="st1" d="M644,119c0,0.7-0.2,1.1-0.6,1.1c-1.8,0-3.9-0.1-6.3-0.2c-2.3-0.2-4.3-0.2-5.9-0.2s-3.6,0.1-5.9,0.2
			c-2.5,0.2-4.6,0.2-6.4,0.2c-0.4,0-0.6-0.4-0.6-1.1c0-0.7,0.2-1,0.6-1.1c3.2-0.4,5.4-1,6.5-1.8c1.2-0.8,1.7-2.5,1.7-4.9V74
			c0-1.8-0.2-3.2-0.7-3.9s-1.3-1.3-2.4-1.8c-1.2-0.4-2.9-0.8-5.1-1c-0.4,0-0.6-0.4-0.6-1.1s0.2-1.1,0.6-1.1c1.8,0,3.9,0.1,6.4,0.2
			c2.3,0.2,4.3,0.2,5.9,0.2s3.6-0.1,5.9-0.2c2.4-0.2,4.5-0.2,6.3-0.2c0.4,0,0.6,0.4,0.6,1.1s-0.2,1.1-0.6,1.1
			c-2.2,0.3-3.9,0.6-5.1,1s-2,1-2.4,1.8c-0.5,0.7-0.7,2-0.7,3.9v37.3c0,1.8,0.2,3.1,0.7,3.9c0.4,0.8,1.2,1.3,2.4,1.8
			c1.2,0.4,2.8,0.8,5,1C643.8,118,644,118.3,644,119L644,119z"/>
		<path class="st1" d="M685.9,104.2c0,5.3-1.6,9.4-4.7,12.5c-3.1,3.1-7.3,4.7-12.6,4.7c-2.3,0-5.2-0.4-8.4-1.3
			c-3-0.8-5.4-1.2-7.3-1.2c-0.2-4.5-0.5-9-1-13.5c0-0.4,0.4-0.6,1.2-0.6c0.6,0,0.9,0.2,1,0.6c1.4,4.9,3.2,8.4,5.5,10.4s5.3,3,9.3,3
			c3.2,0,5.7-0.9,7.4-2.8s2.6-4.4,2.6-7.8c0-2.1-0.8-4.1-2.3-6c-1.5-1.8-4.8-4.2-9.8-7.1c-5.7-3.3-9.5-6.1-11.2-8.4
			c-1.8-2.3-2.7-4.8-2.7-7.6c0-4.3,1.6-7.9,4.8-10.9c3.2-3,7.2-4.5,12.1-4.5c1.8,0,4,0.3,6.4,0.8c2.2,0.5,4.2,0.7,5.8,0.7
			c0.3,4.6,0.7,8.7,1.3,12.3c0,0.4-0.3,0.6-1,0.6c-0.7,0-1.2-0.2-1.2-0.6c-0.9-4-2.2-6.8-4-8.5c-1.8-1.7-4.2-2.6-7.3-2.6
			c-3.1,0-5.3,0.9-7.1,2.6c-1.8,1.7-2.6,4.1-2.6,7c0,1.9,0.7,3.7,2.2,5.4c1.5,1.7,4.7,4,9.5,6.8c5.8,3.4,9.6,6.2,11.4,8.5
			C685,99,685.9,101.5,685.9,104.2L685.9,104.2z"/>
	</g>
	<g>
		<path class="st1" d="M437.3,148.4c0,0.3-0.1,0.6-0.3,0.9s-0.4,0.4-0.7,0.4c-2,0.2-3.5,0.8-4.8,1.9s-2.5,3.1-3.8,6.1l-20.2,45.5
			c-0.1,0.4-0.5,0.6-1.1,0.6c-0.5,0-0.8-0.2-1.1-0.6L394,179.5l-13,23.6c-0.3,0.4-0.6,0.6-1.1,0.6c-0.6,0-1-0.2-1.2-0.6l-19.8-45.5
			c-1.2-2.8-2.5-4.8-3.9-5.9s-3.3-1.8-5.7-2.1c-0.2,0-0.4-0.1-0.6-0.3c-0.2-0.2-0.3-0.5-0.3-0.8c0-0.7,0.2-1.1,0.6-1.1
			c1.8,0,3.6,0.1,5.5,0.2c1.8,0.2,3.5,0.2,5.1,0.2s3.5-0.1,5.7-0.2c2.3-0.2,4.3-0.2,6.1-0.2c0.4,0,0.6,0.4,0.6,1.1
			c0,0.7-0.1,1.1-0.4,1.1c-1.8,0.1-3.2,0.6-4.2,1.3c-1,0.8-1.5,1.8-1.5,3c0,0.6,0.2,1.4,0.6,2.4l16.2,37.1l9.5-17.7l-8.7-18.2
			c-1.6-3.3-2.8-5.4-3.8-6.3c-1-0.9-2.5-1.5-4.6-1.7c-0.2,0-0.4-0.1-0.5-0.3c-0.2-0.2-0.3-0.5-0.3-0.8c0-0.7,0.2-1.1,0.6-1.1
			c1.8,0,3.4,0.1,4.9,0.2c1.4,0.2,2.9,0.2,4.5,0.2c1.6,0,3.3-0.1,5-0.2c1.8-0.2,3.6-0.2,5.4-0.2c0.4,0,0.6,0.4,0.6,1.1
			c0,0.7-0.1,1.1-0.4,1.1c-3.5,0.2-5.3,1.2-5.3,3c0,0.8,0.4,2,1.2,3.7l5.7,11.6l5.7-10.7c0.8-1.5,1.2-2.8,1.2-3.8
			c0-2.4-1.8-3.7-5.3-3.9c-0.3,0-0.5-0.4-0.5-1.1c0-0.3,0.1-0.5,0.2-0.7c0.2-0.2,0.3-0.3,0.5-0.3c1.3,0,2.8,0.1,4.7,0.2
			c1.8,0.2,3.2,0.2,4.4,0.2c0.8,0,2-0.1,3.6-0.2c2-0.2,3.7-0.3,5-0.3c0.3,0,0.5,0.3,0.5,0.9c0,0.8-0.3,1.2-0.9,1.2
			c-2.1,0.2-3.7,0.8-5,1.7c-1.3,0.9-2.8,3-4.7,6.3l-7.6,14.1l10.3,21l15.2-35.3c0.5-1.3,0.8-2.5,0.8-3.6c0-2.6-1.8-4-5.3-4.1
			c-0.3,0-0.5-0.4-0.5-1.1c0-0.7,0.2-1.1,0.7-1.1c1.3,0,2.8,0.1,4.6,0.2c1.6,0.2,3,0.2,4.1,0.2c1.1,0,2.5-0.1,4-0.2
			c1.6-0.2,3-0.2,4.3-0.2C437.1,147.5,437.3,147.8,437.3,148.4L437.3,148.4z"/>
		<path class="st1" d="M485.6,201.4c0,0.7-0.2,1.1-0.6,1.1c-1.8,0-3.9-0.1-6.2-0.2c-2-0.2-3.7-0.2-5.1-0.2c-1.6,0-3.6,0.1-6,0.2
			c-2.5,0.2-4.6,0.2-6.4,0.2c-0.4,0-0.6-0.4-0.6-1.1c0-0.7,0.2-1.1,0.5-1.1c2.3-0.1,4-0.4,5.1-0.9c1-0.5,1.5-1.3,1.5-2.4
			c0-0.7-0.3-1.8-0.8-3.3l-4.5-13.3h-16.3l-4.5,12.3c-0.6,1.6-0.9,2.9-0.9,3.8c0,2.3,2.1,3.6,6.4,3.8c0.3,0,0.5,0.4,0.5,1.1
			c0,0.7-0.2,1.1-0.6,1.1c-1.6,0-3.3-0.1-5.3-0.2c-1.8-0.2-3.4-0.2-4.9-0.2c-1.1,0-2.6,0.1-4.3,0.2c-1.8,0.2-3.3,0.2-4.6,0.2
			c-0.4,0-0.6-0.3-0.6-1c0-0.7,0.3-1.1,0.9-1.2c2.2-0.2,3.9-0.8,5.2-1.8c1.3-1,2.6-3,4-6.1l18.5-45.5c0.2-0.4,0.5-0.6,1.1-0.6
			c0.6,0,1,0.2,1.2,0.6l16.3,45.5c0.9,2.6,2.2,4.4,3.7,5.7c1.6,1.2,3.7,2,6.3,2.3C485.3,200.4,485.6,200.7,485.6,201.4L485.6,201.4z
			 M461.6,177.9l-6.9-20.2l-7.5,20.2H461.6z"/>
		<path class="st1" d="M534.3,187.9c-1.2,4.6-2.2,9.5-2.9,14.6c-10.1-0.3-17.3-0.5-21.6-0.5s-11.3,0.2-21.3,0.5
			c-0.4,0-0.6-0.4-0.6-1.1c0-0.7,0.2-1,0.6-1.1c3.2-0.4,5.4-1,6.5-1.8c1.2-0.8,1.7-2.5,1.7-4.9v-37.3c0-1.8-0.2-3.2-0.7-3.9
			c-0.5-0.8-1.3-1.3-2.4-1.8c-1.2-0.4-2.9-0.8-5.1-1c-0.4,0-0.6-0.4-0.6-1.1c0-0.7,0.2-1.1,0.6-1.1c1.8,0,3.9,0.1,6.3,0.2
			c2.3,0.2,4.3,0.2,5.9,0.2s3.6-0.1,5.9-0.2c2.4-0.2,4.5-0.2,6.3-0.2c0.4,0,0.6,0.4,0.6,1.1c0,0.7-0.2,1.1-0.6,1.1
			c-2.2,0.3-3.9,0.6-5.1,1c-1.2,0.4-2,1-2.4,1.8c-0.4,0.7-0.7,2-0.7,3.9v38.5c0,3.1,1.5,4.7,4.6,4.7h7.8c3.2,0,6-0.9,8.2-2.6
			c2.2-1.7,4.5-5,6.7-9.7c0.1-0.2,0.4-0.3,0.8-0.3c0.3,0,0.7,0.1,1,0.3C534.2,187.4,534.3,187.6,534.3,187.9L534.3,187.9z"/>
		<path class="st1" d="M564.9,201.4c0,0.7-0.2,1.1-0.6,1.1c-1.8,0-3.9-0.1-6.3-0.2c-2.3-0.2-4.3-0.2-5.9-0.2c-1.6,0-3.6,0.1-5.9,0.2
			c-2.5,0.2-4.6,0.2-6.4,0.2c-0.4,0-0.6-0.4-0.6-1.1c0-0.7,0.2-1,0.6-1.1c3.2-0.4,5.4-1,6.5-1.8c1.2-0.8,1.7-2.5,1.7-4.9v-37.3
			c0-1.8-0.2-3.2-0.7-3.9s-1.3-1.3-2.4-1.8c-1.2-0.4-2.9-0.8-5.1-1c-0.4,0-0.6-0.4-0.6-1.1c0-0.7,0.2-1.1,0.6-1.1
			c1.8,0,3.9,0.1,6.4,0.2c2.3,0.2,4.3,0.2,5.9,0.2c1.6,0,3.6-0.1,5.9-0.2c2.4-0.2,4.5-0.2,6.3-0.2c0.4,0,0.6,0.4,0.6,1.1
			c0,0.7-0.2,1.1-0.6,1.1c-2.2,0.3-3.9,0.6-5.1,1c-1.2,0.4-2,1-2.4,1.8c-0.5,0.7-0.7,2-0.7,3.9v37.3c0,1.8,0.2,3.1,0.7,3.9
			c0.4,0.8,1.2,1.3,2.4,1.8c1.2,0.4,2.8,0.8,5,1C564.7,200.4,564.9,200.7,564.9,201.4L564.9,201.4z"/>
		<path class="st1" d="M606.9,186.6c0,5.3-1.6,9.4-4.7,12.5c-3.1,3.1-7.3,4.7-12.6,4.7c-2.3,0-5.2-0.4-8.4-1.3
			c-3-0.8-5.4-1.2-7.3-1.2c-0.2-4.5-0.5-9-1-13.5c0-0.4,0.4-0.6,1.2-0.6c0.6,0,0.9,0.2,1,0.6c1.4,4.9,3.2,8.4,5.5,10.4s5.3,3,9.3,3
			c3.2,0,5.7-0.9,7.4-2.8s2.6-4.4,2.6-7.8c0-2.1-0.8-4.1-2.3-6c-1.5-1.8-4.8-4.2-9.8-7.1c-5.7-3.3-9.5-6.1-11.2-8.4
			c-1.8-2.3-2.7-4.8-2.7-7.6c0-4.3,1.6-7.9,4.8-10.9c3.2-3,7.2-4.5,12.1-4.5c1.8,0,4,0.3,6.4,0.8c2.2,0.5,4.2,0.7,5.8,0.7
			c0.3,4.6,0.7,8.7,1.3,12.3c0,0.4-0.3,0.6-1,0.6c-0.7,0-1.2-0.2-1.2-0.6c-0.9-4-2.2-6.8-4-8.5c-1.8-1.7-4.2-2.6-7.3-2.6
			c-3.1,0-5.3,0.9-7.1,2.6c-1.8,1.7-2.6,4.1-2.6,7c0,1.9,0.7,3.7,2.2,5.4c1.5,1.7,4.7,4,9.5,6.8c5.8,3.4,9.6,6.2,11.4,8.5
			C606,181.4,606.9,183.9,606.9,186.6L606.9,186.6z"/>
		<path class="st1" d="M671.6,175.3c0,8.4-2.7,15.2-8.1,20.5c-5.4,5.3-12.4,8-21.1,8s-15.7-2.7-21.1-8c-5.4-5.3-8.1-12.2-8.1-20.5
			s2.7-15.3,8.1-20.8c5.4-5.5,12.4-8.2,21-8.2s15.6,2.7,21.1,8.2C668.9,159.9,671.6,166.9,671.6,175.3L671.6,175.3z M662.9,175.3
			c0-7.8-1.9-14.1-5.6-19.1c-3.8-4.9-8.7-7.4-14.8-7.4c-6.1,0-11.1,2.5-14.8,7.4c-3.7,4.9-5.6,11.3-5.6,19.1s1.8,14,5.6,18.8
			c3.7,4.8,8.7,7.2,14.9,7.2c6.2,0,11.1-2.4,14.9-7.2C661,189.3,662.9,183,662.9,175.3L662.9,175.3z"/>
		<path class="st1" d="M743,148.6c0,0.7-0.2,1-0.6,1.1c-3.3,0.4-5.6,1-6.8,1.8c-1.2,0.8-1.9,2.5-1.9,4.9l-0.9,46.6
			c0,0.5-0.3,0.8-1,0.8c-0.3,0-0.7-0.2-1.3-0.6L689.8,157l-0.6,36.6c0,0.2,0,0.4,0,0.6c0,2,0.6,3.4,1.9,4.3c1.3,0.8,3.5,1.4,6.8,1.8
			c0.4,0.1,0.6,0.4,0.6,1.1c0,0.7-0.2,1.1-0.6,1.1c-1.4,0-3.3-0.1-5.7-0.2c-2.2-0.2-4-0.2-5.2-0.2c-1.3,0-3.1,0.1-5.3,0.2
			c-2.2,0.2-3.8,0.2-5,0.2c-0.4,0-0.6-0.4-0.6-1.1c0-0.7,0.2-1,0.7-1.1c3.3-0.4,5.5-1,6.7-1.8c1.2-0.8,1.9-2.4,1.9-4.8l1.4-37.3V156
			c0-2.1-0.6-3.6-1.9-4.5c-1.2-0.8-3.5-1.5-6.9-1.9c-0.4,0-0.6-0.4-0.6-1.1c0-0.7,0.2-1.1,0.6-1.1c0.9,0,2.2,0.1,3.9,0.2
			c1.5,0.2,2.6,0.2,3.3,0.2c0.9,0,2-0.1,3.3-0.2c1.3-0.2,2.5-0.2,3.4-0.2l38.1,42.6v-33.7c0-2.2-0.6-3.8-1.9-4.7
			c-1.3-0.9-3.7-1.6-7.1-2c-0.4-0.1-0.6-0.4-0.6-1.1c0-0.7,0.2-1.1,0.6-1.1c1.4,0,3.3,0.1,5.7,0.2c2.2,0.2,3.9,0.2,5.1,0.2
			c1.3,0,3.1-0.1,5.3-0.2c2.2-0.2,3.8-0.2,5-0.2C742.8,147.4,743,147.8,743,148.6L743,148.6z"/>
		<path class="st1" d="M807.2,178.2c0,0.7-0.2,1-0.6,1.1c-3.2,0.4-5.3,1-6.5,1.8c-1.1,0.8-1.7,2.5-1.7,4.9v4.7
			c0,4.1,0.3,6.9,0.9,8.4c-3.5,1.4-7.3,2.5-11.4,3.4s-7.7,1.3-10.8,1.3c-6,0-11.3-1.2-15.8-3.6s-8.1-5.8-10.6-10.2
			c-2.5-4.4-3.8-9.3-3.8-14.7s1.4-10.3,4.1-14.8c2.7-4.5,6.5-8,11.4-10.5c4.8-2.5,10.3-3.7,16.4-3.7c2.4,0,5.6,0.4,9.6,1.3
			c3.5,0.7,6.2,1.1,8.1,1.1c0.3,3.7,1,8.2,1.8,13.5c0,0.4-0.4,0.6-1.3,0.6c-0.6,0-0.9-0.2-1-0.6c-2.3-8.9-8.5-13.3-18.5-13.3
			c-6.2,0-11.4,2.6-15.6,7.7s-6.3,11.4-6.3,18.8s2.1,13.3,6.3,18.4c4.2,5.1,9.3,7.6,15.3,7.6c8.8,0,13.3-2.2,13.3-6.6v-10.5
			c0-1.5-0.7-2.5-2.1-3.1c-1.4-0.6-4.7-1.2-10.1-1.7c-0.4,0-0.6-0.4-0.6-1.2c0-0.7,0.2-1.1,0.6-1.1c1.8,0,4.4,0.1,7.8,0.2
			c3.3,0.1,5.8,0.2,7.4,0.2s3.7-0.1,6.3-0.2c2.8-0.1,5.1-0.2,6.8-0.2C806.9,177.1,807.2,177.4,807.2,178.2L807.2,178.2z"/>
		<path class="st1" d="M870,175.3c0,8.4-2.7,15.2-8.1,20.5c-5.4,5.3-12.4,8-21.1,8s-15.7-2.7-21.1-8c-5.4-5.3-8.1-12.2-8.1-20.5
			s2.7-15.3,8.1-20.8c5.4-5.5,12.4-8.2,21-8.2c8.6,0,15.6,2.7,21.1,8.2C867.3,159.9,870,166.9,870,175.3L870,175.3z M861.3,175.3
			c0-7.8-1.9-14.1-5.6-19.1c-3.8-4.9-8.7-7.4-14.8-7.4c-6.1,0-11.1,2.5-14.8,7.4c-3.7,4.9-5.6,11.3-5.6,19.1s1.8,14,5.6,18.8
			c3.7,4.8,8.7,7.2,14.9,7.2c6.2,0,11.1-2.4,14.9-7.2C859.4,189.3,861.3,183,861.3,175.3L861.3,175.3z"/>
	</g>
</g>
<g id="Layer_2_00000126295112972645654960000001158419254551494816_">
	<g>
		<path class="st1" d="M167.4,132.5c-1.6-2.9-2.4-6.2-2.1-9.6c0.3-3,1.3-5.3,3.5-7.4c2.2-2,5-3.3,7.9-3.8c2.8-0.5,5.8-0.3,8.6,0.5
			c1.4,0.4,2.7,1.1,4,1.8c0.8,0.4,1.5,0.6,2.3,0c0.1-0.1,0.2-0.1,0.2-0.2c0.1-0.1,0.1-0.1,0.2-0.2c0.5-0.7,0.5-1.3,0.2-2.1
			c-0.6-1.5-1.5-2.8-1.9-4.3c-0.9-3-1.1-6.1-0.4-9.1c0.6-2.9,2-5.6,4.1-7.7c2-2,4.4-2.9,7.2-3.1c3.3-0.3,6.5,0.6,9.3,2.1v-2.3
			c-3.6-1.7-7.6-2.3-11.5-1.6c-5.5,1.1-9.2,5.5-10.8,10.7c-0.8,2.6-1,5.5-0.7,8.2c0.2,1.4,0.5,2.8,1,4.2c0.2,0.4,1.3,2.6,1.6,3.5
			c-1-0.3-3.1-1.5-3.5-1.7c-1.4-0.5-2.8-0.8-4.2-1c-2.9-0.4-5.9-0.1-8.7,0.8c-5.1,1.8-9.3,5.5-10.2,10.9c-0.7,3.9,0,7.8,1.6,11.2
			L167.4,132.5L167.4,132.5z"/>
		<path class="st1" d="M205.9,132.5c-0.9-1.7-1.8-3.4-2.8-5.1c-1.3-2.2-2.6-4.3-4-6.4c2.1,1.4,4.2,2.8,6.4,4c1.7,1,3.4,1.9,5.1,2.8
			v-2c-1.4-0.7-2.8-1.5-4.2-2.3c-3.5-2-6.8-4.2-10.1-6.5c-0.3-0.2-0.8-0.1-1,0.2c-0.3,0.3-0.4,0.7-0.2,1c2.3,3.3,4.5,6.7,6.5,10.1
			c0.8,1.4,1.6,2.8,2.3,4.2L205.9,132.5L205.9,132.5L205.9,132.5z"/>
		<path class="st1" d="M210.4,132.5c-0.1-0.1-0.1-0.2-0.2-0.3c0.1,0.1,0.2,0.1,0.3,0.2V130c-0.9-0.5-1.8-1-2.7-1.5
			c-0.4-0.2-0.8-0.1-1,0.2c-0.3,0.2-0.4,0.6-0.2,1c0.5,0.9,1,1.8,1.5,2.7L210.4,132.5L210.4,132.5L210.4,132.5z"/>
		<path class="st1" d="M196.9,89.9c-9.9,5.9-5.8,19.7,1.2,25.7c0,0,0.1,0,0.1,0.1c0.1,0.1,0.1,0.1,0.2,0.2c3.7,2.7,7.9,5.1,12.1,7.3
			v-2.4c-2.2-1-4-2.5-4.1-5.3c0-0.2,0-0.4,0-0.5c1.3,1,2.7,1.9,4.1,2.8v-2.1c-1.3-0.8-2.6-1.7-3.9-2.7c0.3-1.2,0.8-2.5,1.8-3
			c0.6-0.3,1.3-0.4,2.1-0.3v-1.8c-1.1-0.1-2.2,0-3,0.5c-2.4,1.4-3.1,5.5-2.8,8c0.1,0.6,0.3,1.2,0.5,1.8c-3-1.7-5.3-3.7-5.6-7.5
			c-0.3-3.2,0.8-7.7,3.8-9.4l0,0l0,0c2.1-1.2,4.8-1,7.2-0.1v-1.9c-0.4-0.1-0.8-0.2-1.2-0.3c-0.1-2.4-0.4-4.8-0.9-7.1
			c0.7,0.4,1.4,1,2.1,1.5v-2.2C206.7,88.3,201.9,87.2,196.9,89.9L196.9,89.9z M197.9,110.8c0.1,1,0.3,1.9,0.6,2.7
			c-1.5-1.5-2.9-3.5-3.9-5.5c0.2,0.1,0.3,0.2,0.5,0.2c0.9,0.4,1.8,0.8,2.7,1.2C197.8,109.9,197.8,110.3,197.9,110.8L197.9,110.8z
			 M198,107.6c-0.5-0.2-1.1-0.5-1.6-0.7c-0.8-0.4-1.9-0.7-2.5-1.4c-0.1-0.1-0.3-0.2-0.4-0.2c-0.4-1.4-0.7-2.9-0.7-4.3
			c1.8,1.6,3.7,3,5.7,4.3C198.3,106,198.1,106.8,198,107.6L198,107.6z M200.3,101.5c-0.5,0.6-0.8,1.3-1.2,2.1
			c-2.2-1.4-4.2-3-6.1-4.8c0,0-0.1,0-0.1-0.1c0.2-1.3,0.7-2.5,1.4-3.6C196,97.5,198,99.6,200.3,101.5L200.3,101.5z M203.5,99
			c-0.4,0.1-0.7,0.3-1.1,0.5c-0.3,0.2-0.7,0.4-1,0.7c-2.3-1.9-4.3-4-6-6.5c0.6-0.7,1.4-1.3,2.3-1.9c0.1,0,0.1-0.1,0.2-0.1
			c0.1,0,0.1-0.1,0.2-0.1c0.9-0.5,1.9-0.9,2.8-1.1C202.1,93.2,203,96,203.5,99L203.5,99z M206.5,91c0.6,2.5,0.9,5.1,1.1,7.6
			c-0.8-0.1-1.6-0.1-2.4,0c-0.5-2.9-1.3-5.7-2.5-8.3c1.3-0.1,2.6,0.2,3.8,0.6C206.5,90.9,206.5,90.9,206.5,91L206.5,91z"/>
		<path class="st1" d="M210.6,120v-1.8C210.5,118.8,210.5,119.5,210.6,120z"/>
		<path class="st1" d="M171.5,132.5c-0.6-0.7-1.1-1.4-1.5-2.1c2.3,0.5,4.7,0.8,7.1,0.9c0.1,0.4,0.2,0.8,0.3,1.2h1.9h0
			c-0.9-2.4-1.1-5.1,0.1-7.2l0,0l0,0c1.7-3,6.2-4.1,9.4-3.8c3.8,0.3,5.8,2.6,7.5,5.6c-0.5-0.2-1.1-0.4-1.8-0.5
			c-2.5-0.3-6.6,0.4-8,2.8c-0.5,0.9-0.6,1.9-0.5,3h1.8h0c-0.1-0.8,0-1.5,0.3-2.1c0.6-0.9,1.8-1.5,3-1.8c1,1.2,1.9,2.5,2.7,3.9h2.1h0
			c-0.8-1.4-1.8-2.8-2.8-4.1c0.2,0,0.4,0,0.5,0c2.7,0.1,4.2,2,5.3,4.1h2.4h0c-2.2-4.2-4.6-8.4-7.3-12.1c-0.1-0.1-0.1-0.1-0.2-0.2
			c0,0,0-0.1-0.1-0.1c-6.1-7-19.8-11.2-25.7-1.2c-2.7,4.9-1.7,9.8,1.2,13.7L171.5,132.5L171.5,132.5L171.5,132.5z M186.1,116.4
			c2.1,1,4,2.4,5.5,3.9c-0.8-0.3-1.7-0.5-2.7-0.6c-0.4,0-0.9-0.1-1.4,0c-0.4-0.9-0.8-1.8-1.2-2.7
			C186.3,116.8,186.2,116.6,186.1,116.4L186.1,116.4z M179.1,114.6c1.4,0,2.9,0.3,4.3,0.7c0,0.1,0.1,0.3,0.2,0.4
			c0.7,0.6,1,1.6,1.4,2.5c0.2,0.5,0.5,1.1,0.7,1.6c-0.8,0.1-1.6,0.3-2.3,0.5C182.1,118.3,180.7,116.4,179.1,114.6L179.1,114.6z
			 M176.9,114.8c0,0,0,0.1,0.1,0.1c1.8,1.9,3.3,3.9,4.8,6.1c-0.8,0.3-1.5,0.7-2.1,1.2c-1.9-2.3-4-4.2-6.3-6
			C174.4,115.4,175.6,115,176.9,114.8L176.9,114.8z M169.8,120c0-0.1,0.1-0.1,0.1-0.2c0-0.1,0.1-0.1,0.1-0.2
			c0.5-0.9,1.2-1.7,1.9-2.3c2.4,1.7,4.6,3.7,6.5,6c-0.3,0.3-0.5,0.6-0.7,1c-0.2,0.3-0.4,0.7-0.5,1.1c-2.9-0.5-5.7-1.3-8.5-2.6
			C168.9,121.8,169.2,120.9,169.8,120L169.8,120z M168.4,124.6c2.7,1.2,5.4,2,8.3,2.5c-0.1,0.8-0.1,1.6,0,2.4
			c-2.6-0.1-5.1-0.5-7.6-1.1c0,0-0.1,0-0.1,0C168.6,127.2,168.4,125.9,168.4,124.6L168.4,124.6z"/>
		<path class="st1" d="M196.3,132.5L196.3,132.5h1.8h0.1C197.6,132.4,197,132.4,196.3,132.5z"/>
		<path class="st1" d="M255.9,141.8c-0.2,2.8-1.1,5.2-3.1,7.2c-2.1,2.1-4.8,3.5-7.7,4.1c-3,0.7-6.2,0.5-9.1-0.4
			c-1.5-0.5-2.8-1.3-4.3-1.9c-0.8-0.3-1.4-0.3-2.1,0.2c-0.1,0.1-0.2,0.1-0.2,0.2c-0.1,0.1-0.1,0.1-0.2,0.2c-0.6,0.8-0.4,1.5,0,2.3
			c0.7,1.3,1.3,2.6,1.8,4c0.8,2.8,1,5.7,0.5,8.6c-0.5,2.9-1.8,5.7-3.8,7.9c-2,2.2-4.4,3.2-7.4,3.5c-3.4,0.3-6.7-0.5-9.6-2.1v2.3
			c3.5,1.7,7.4,2.3,11.2,1.6c5.4-1,9.2-5.1,10.9-10.2c1-2.8,1.2-5.8,0.8-8.7c-0.2-1.4-0.5-2.8-1-4.2c-0.2-0.5-1.3-2.6-1.7-3.5
			c1,0.3,3.1,1.5,3.5,1.6c1.4,0.5,2.8,0.8,4.2,1c2.7,0.3,5.5,0.1,8.2-0.7c5.2-1.6,9.6-5.4,10.7-10.8c0.8-3.9,0.1-8-1.6-11.5h0h-2.3
			C255.3,135.3,256.2,138.5,255.9,141.8L255.9,141.8z"/>
		<path class="st1" d="M217.3,132.5L217.3,132.5h-2c0.9,1.7,1.8,3.4,2.8,5.1c1.3,2.2,2.6,4.3,4,6.4c-2.1-1.4-4.2-2.8-6.4-4
			c-1.7-1-3.4-1.9-5.1-2.8v2c1.4,0.8,2.8,1.5,4.2,2.3c3.5,2,6.8,4.2,10.1,6.5c0.3,0.2,0.8,0.1,1-0.2c0.3-0.3,0.4-0.7,0.2-1
			c-2.3-3.3-4.5-6.7-6.5-10.1C218.8,135.3,218,133.9,217.3,132.5L217.3,132.5z"/>
		<path class="st1" d="M210.8,132.5c0.1,0.1,0.1,0.2,0.2,0.3c-0.1-0.1-0.2-0.1-0.3-0.2v2.3c0.9,0.5,1.8,1,2.7,1.5
			c0.4,0.2,0.8,0.1,1-0.2c0.3-0.2,0.4-0.6,0.2-1c-0.5-0.9-1-1.8-1.5-2.7h0L210.8,132.5L210.8,132.5z"/>
		<path class="st1" d="M251.2,134.6c-2.3-0.5-4.7-0.8-7.1-0.9c-0.1-0.4-0.2-0.8-0.3-1.2h0h-1.9c0.9,2.4,1.1,5.1-0.1,7.2l0,0l0,0
			c-1.7,3-6.2,4.1-9.4,3.8c-3.8-0.3-5.8-2.6-7.5-5.6c0.5,0.2,1.1,0.4,1.8,0.5c2.5,0.3,6.6-0.4,8-2.8c0.5-0.9,0.6-1.9,0.5-3h0h-1.8
			c0.1,0.8,0,1.5-0.3,2.1c-0.6,0.9-1.8,1.5-3,1.8c-1-1.2-1.8-2.5-2.7-3.9h0h-2.1c0.8,1.4,1.8,2.8,2.8,4.1c-0.2,0-0.4,0-0.5,0
			c-2.7-0.1-4.2-2-5.3-4.1h0h-2.4c2.2,4.2,4.6,8.4,7.3,12.1c0.1,0.1,0.1,0.1,0.2,0.2c0,0,0,0.1,0.1,0.1c6.1,7,19.8,11.2,25.7,1.2
			c2.7-4.9,1.7-9.8-1.2-13.7h0h-2.2C250.3,133.1,250.8,133.8,251.2,134.6L251.2,134.6z M235.1,148.5c-2.1-1-4-2.4-5.5-3.9
			c0.8,0.3,1.7,0.5,2.7,0.6c0.4,0,0.9,0.1,1.4,0c0.4,0.9,0.8,1.8,1.2,2.7C234.9,148.1,235,148.3,235.1,148.5L235.1,148.5z
			 M242.1,150.3c-1.4,0-2.9-0.3-4.3-0.7c0-0.1-0.1-0.3-0.2-0.4c-0.7-0.6-1-1.6-1.4-2.5c-0.2-0.5-0.5-1.1-0.7-1.6
			c0.8-0.1,1.6-0.3,2.3-0.5C239.1,146.6,240.5,148.5,242.1,150.3L242.1,150.3z M244.3,150.1c0,0,0-0.1-0.1-0.1
			c-1.8-1.9-3.3-3.9-4.8-6.1c0.8-0.3,1.5-0.7,2.1-1.2c1.9,2.3,4,4.2,6.3,6C246.8,149.4,245.6,149.9,244.3,150.1L244.3,150.1z
			 M251.4,144.9c0,0.1-0.1,0.1-0.1,0.2c0,0.1-0.1,0.1-0.1,0.2c-0.5,0.9-1.2,1.7-1.9,2.3c-2.4-1.7-4.6-3.7-6.5-6
			c0.3-0.3,0.5-0.6,0.7-1c0.2-0.3,0.4-0.7,0.5-1.1c2.9,0.5,5.7,1.3,8.5,2.6C252.3,143,252,144,251.4,144.9L251.4,144.9z
			 M252.8,140.3c-2.7-1.2-5.4-2-8.3-2.5c0.1-0.8,0.1-1.6,0-2.4c2.6,0.1,5.1,0.5,7.6,1.1c0,0,0.1,0,0.1,0
			C252.6,137.7,252.8,139,252.8,140.3L252.8,140.3z"/>
		<path class="st1" d="M224.8,132.5H223C223.6,132.5,224.2,132.5,224.8,132.5z"/>
		<path class="st1" d="M222.9,149.1c-0.1-0.1-0.1-0.1-0.2-0.2c-3.7-2.7-7.9-5.1-12.1-7.3v2.4c2.2,1,4,2.5,4.1,5.3c0,0.2,0,0.4,0,0.5
			c-1.3-1-2.7-1.9-4.1-2.8v2.1c1.3,0.8,2.6,1.7,3.9,2.7c-0.3,1.2-0.8,2.5-1.8,3c-0.6,0.3-1.3,0.4-2.1,0.3v1.8c1.1,0.1,2.2,0,3-0.5
			c2.4-1.4,3.1-5.5,2.8-8c-0.1-0.6-0.3-1.2-0.5-1.8c3,1.7,5.3,3.7,5.6,7.5c0.3,3.2-0.8,7.7-3.8,9.4l0,0l0,0c-2.1,1.2-4.8,1-7.2,0.1
			v1.9c0.4,0.1,0.8,0.2,1.2,0.3c0.1,2.4,0.4,4.8,0.9,7.1c-0.7-0.4-1.4-1-2.1-1.5v2.2c3.9,2.9,8.8,4,13.7,1.2
			c9.9-5.9,5.8-19.7-1.2-25.7C223,149.2,223,149.2,222.9,149.1L222.9,149.1z M214.7,174c0,0,0-0.1,0-0.1c-0.6-2.5-0.9-5.1-1.1-7.6
			c0.8,0.1,1.6,0.1,2.4,0c0.5,2.9,1.3,5.7,2.5,8.3C217.2,174.7,215.9,174.5,214.7,174L214.7,174z M225.8,171.2
			c-0.6,0.7-1.4,1.3-2.3,1.9c-0.1,0-0.1,0.1-0.2,0.1c-0.1,0-0.1,0.1-0.2,0.1c-0.9,0.5-1.9,0.9-2.8,1.1c-1.2-2.7-2.1-5.5-2.6-8.5
			c0.4-0.1,0.7-0.3,1.1-0.5c0.3-0.2,0.7-0.4,1-0.7C222,166.6,224.1,168.8,225.8,171.2L225.8,171.2z M226.9,169.8
			c-1.7-2.3-3.7-4.5-6-6.3c0.5-0.6,0.8-1.3,1.2-2.1c2.2,1.4,4.2,3,6.1,4.8c0,0,0.1,0,0.1,0.1C228.1,167.4,227.6,168.6,226.9,169.8
			L226.9,169.8z M228.4,164c-1.8-1.6-3.7-3-5.7-4.3c0.2-0.8,0.4-1.6,0.5-2.3c0.5,0.2,1.1,0.5,1.6,0.7c0.8,0.4,1.9,0.7,2.5,1.4
			c0.1,0.1,0.3,0.2,0.4,0.2C228.2,161.1,228.4,162.6,228.4,164L228.4,164z M226.6,156.9c-0.2-0.1-0.3-0.2-0.5-0.2
			c-0.9-0.4-1.8-0.8-2.7-1.2c0-0.5,0-0.9,0-1.4c-0.1-1-0.3-1.9-0.6-2.7C224.3,152.9,225.6,154.8,226.6,156.9L226.6,156.9z"/>
		<path class="st1" d="M210.6,144.8v1.9C210.7,146.1,210.7,145.4,210.6,144.8z"/>
		<path class="st1" d="M201,177.7c-3-0.3-5.3-1.3-7.4-3.5c-2-2.2-3.3-5-3.8-7.9c-0.5-2.8-0.3-5.8,0.5-8.6c0.4-1.4,1.1-2.7,1.8-4
			c0.4-0.8,0.6-1.5,0-2.3c-0.1-0.1-0.1-0.2-0.2-0.2c-0.1-0.1-0.1-0.1-0.2-0.2c-0.7-0.5-1.3-0.5-2.1-0.2c-1.5,0.6-2.8,1.5-4.3,1.9
			c-3,0.9-6.1,1.1-9.1,0.4c-2.9-0.6-5.6-2-7.7-4.1c-2-2-2.9-4.4-3.1-7.2c-0.3-3.3,0.6-6.5,2.1-9.3h-2.3c-1.7,3.6-2.3,7.6-1.6,11.5
			c1.1,5.5,5.5,9.2,10.7,10.8c2.6,0.8,5.5,1,8.2,0.7c1.4-0.2,2.8-0.5,4.2-1c0.4-0.2,2.6-1.3,3.5-1.6c-0.3,1-1.5,3.1-1.7,3.5
			c-0.5,1.4-0.8,2.8-1,4.2c-0.4,2.9-0.1,5.9,0.8,8.7c1.8,5.1,5.5,9.3,10.9,10.2c3.9,0.7,7.8,0,11.2-1.6v-2.3
			C207.7,177.2,204.4,178,201,177.7L201,177.7z"/>
		<path class="st1" d="M205.5,139.9c-2.2,1.3-4.3,2.6-6.4,4c1.4-2.1,2.8-4.2,4-6.4c1-1.7,1.9-3.4,2.8-5.1h-2h0
			c-0.7,1.4-1.5,2.8-2.3,4.2c-2,3.5-4.2,6.8-6.5,10.1c-0.2,0.3-0.1,0.8,0.2,1c0.3,0.3,0.7,0.4,1,0.2c3.3-2.3,6.7-4.5,10.1-6.5
			c1.4-0.8,2.8-1.6,4.2-2.3v-2C208.9,138,207.2,138.9,205.5,139.9L205.5,139.9z"/>
		<path class="st1" d="M210.3,132.8c0.1-0.1,0.1-0.2,0.2-0.3h-2.3h0c-0.5,0.9-1,1.8-1.5,2.7c-0.2,0.4-0.1,0.8,0.2,1
			c0.2,0.3,0.6,0.4,1,0.2c0.9-0.5,1.8-1,2.7-1.5v-2.3C210.5,132.6,210.4,132.7,210.3,132.8L210.3,132.8z"/>
		<path class="st1" d="M193.8,144.9c0,0,0-0.1,0.1-0.1c0.1-0.1,0.1-0.1,0.2-0.2c2.7-3.7,5.1-7.9,7.3-12.1H199h0
			c-1,2.2-2.5,4-5.3,4.1c-0.2,0-0.4,0-0.5,0c1-1.3,1.9-2.7,2.8-4.1h-2.1h0c-0.8,1.3-1.7,2.6-2.7,3.9c-1.2-0.3-2.5-0.8-3-1.8
			c-0.3-0.6-0.4-1.3-0.3-2.1H186h0c-0.1,1.1,0,2.2,0.5,3c1.4,2.4,5.5,3.1,8,2.8c0.6-0.1,1.2-0.3,1.8-0.5c-1.7,3-3.7,5.3-7.5,5.6
			c-3.2,0.3-7.7-0.8-9.4-3.8l0,0l0,0c-1.2-2.1-1-4.8-0.1-7.2h-1.9h0c-0.1,0.4-0.2,0.8-0.3,1.2c-2.4,0.1-4.8,0.4-7.1,0.9
			c0.4-0.7,1-1.4,1.5-2.1h-2.2h0c-2.9,3.9-4,8.8-1.2,13.7C174,156,187.8,151.9,193.8,144.9L193.8,144.9z M169,136.5c0,0,0.1,0,0.1,0
			c2.5-0.6,5.1-0.9,7.6-1.1c-0.1,0.8-0.1,1.6,0,2.4c-2.9,0.5-5.7,1.3-8.3,2.5C168.3,139,168.6,137.7,169,136.5L169,136.5z
			 M170,145.3c0-0.1-0.1-0.1-0.1-0.2c0-0.1-0.1-0.1-0.1-0.2c-0.5-0.9-0.9-1.9-1.1-2.8c2.7-1.2,5.5-2.1,8.5-2.6
			c0.1,0.4,0.3,0.7,0.5,1.1c0.2,0.3,0.4,0.7,0.7,1c-1.9,2.3-4,4.3-6.5,6C171.1,147,170.5,146.2,170,145.3L170,145.3z M176.9,150.1
			c-1.3-0.2-2.5-0.7-3.6-1.4c2.3-1.7,4.5-3.7,6.3-6c0.6,0.5,1.3,0.8,2.1,1.2c-1.4,2.2-3,4.2-4.8,6.1
			C176.9,150,176.9,150.1,176.9,150.1L176.9,150.1z M183.6,149.2c-0.1,0.1-0.2,0.3-0.2,0.4c-1.4,0.4-2.9,0.7-4.3,0.7
			c1.6-1.8,3-3.7,4.3-5.7c0.8,0.2,1.6,0.4,2.3,0.5c-0.2,0.5-0.5,1.1-0.7,1.6C184.6,147.5,184.3,148.6,183.6,149.2L183.6,149.2z
			 M186.4,147.9c0.4-0.9,0.8-1.8,1.2-2.7c0.5,0,0.9,0,1.4,0c1-0.1,1.9-0.3,2.7-0.6c-1.5,1.5-3.5,2.9-5.5,3.9
			C186.2,148.3,186.3,148.1,186.4,147.9L186.4,147.9z"/>
		<path class="st1" d="M198.2,132.5h-1.8C197,132.5,197.6,132.5,198.2,132.5z"/>
		<path class="st1" d="M208.5,173.1c0.5-2.3,0.8-4.7,0.9-7.1c0.4-0.1,0.8-0.2,1.2-0.3v-1.9c-2.4,0.9-5.1,1.1-7.2-0.1l0,0l0,0
			c-3-1.7-4.1-6.2-3.8-9.4c0.3-3.8,2.6-5.8,5.6-7.5c-0.2,0.5-0.4,1.1-0.5,1.8c-0.3,2.5,0.4,6.6,2.8,8c0.9,0.5,1.9,0.6,3,0.5v-1.8
			c-0.8,0.1-1.5,0-2.1-0.3c-0.9-0.6-1.5-1.8-1.8-3c1.2-1,2.5-1.9,3.9-2.7v-2.1c-1.4,0.8-2.8,1.8-4.1,2.8c0-0.2,0-0.4,0-0.5
			c0.1-2.7,2-4.2,4.1-5.3v-2.4c-4.2,2.2-8.4,4.6-12.1,7.3c-0.1,0.1-0.1,0.1-0.2,0.2c0,0-0.1,0-0.1,0.1c-7,6.1-11.2,19.8-1.2,25.7
			c4.9,2.7,9.8,1.7,13.7-1.2v-2.2C209.9,172.1,209.2,172.6,208.5,173.1L208.5,173.1z M198.4,151.4c-0.3,0.8-0.5,1.7-0.6,2.7
			c0,0.4-0.1,0.9,0,1.4c-0.9,0.4-1.8,0.8-2.7,1.2c-0.2,0.1-0.3,0.2-0.5,0.2C195.6,154.8,196.9,152.9,198.4,151.4L198.4,151.4z
			 M193.5,159.7c0.1,0,0.3-0.1,0.4-0.2c0.6-0.7,1.6-1,2.5-1.4c0.5-0.2,1.1-0.5,1.6-0.7c0.1,0.8,0.3,1.6,0.5,2.3
			c-2,1.3-3.9,2.7-5.7,4.3C192.8,162.6,193,161.1,193.5,159.7L193.5,159.7z M192.9,166.2c0,0,0.1,0,0.1-0.1c1.9-1.8,3.9-3.3,6.1-4.8
			c0.3,0.8,0.7,1.5,1.2,2.1c-2.3,1.9-4.2,4-6,6.3C193.6,168.7,193.1,167.5,192.9,166.2L192.9,166.2z M198.1,173.3
			c-0.1,0-0.1-0.1-0.2-0.1c-0.1,0-0.1-0.1-0.2-0.1c-0.9-0.5-1.7-1.2-2.3-1.9c1.7-2.4,3.7-4.6,6-6.5c0.3,0.3,0.6,0.5,1,0.7
			c0.3,0.2,0.7,0.4,1.1,0.5c-0.5,2.9-1.3,5.7-2.6,8.5C200,174.2,199.1,173.8,198.1,173.3L198.1,173.3z M206.5,174
			c-1.2,0.4-2.5,0.7-3.8,0.6c1.2-2.7,2-5.4,2.5-8.3c0.8,0.1,1.6,0.1,2.4,0c-0.1,2.6-0.5,5.1-1.1,7.6
			C206.5,173.9,206.5,174,206.5,174L206.5,174z"/>
		<path class="st1" d="M210.6,146.7v-1.9C210.5,145.4,210.5,146.1,210.6,146.7z"/>
		<path class="st1" d="M238.8,109.4c-1.4,0.2-2.8,0.5-4.2,1c-0.5,0.2-2.6,1.3-3.5,1.7c0.3-1,1.5-3.1,1.6-3.5c0.5-1.4,0.8-2.8,1-4.2
			c0.3-2.7,0.1-5.5-0.7-8.2c-1.6-5.2-5.4-9.6-10.8-10.7c-3.9-0.8-8-0.1-11.5,1.6v2.3c2.8-1.6,6.1-2.4,9.3-2.1
			c2.8,0.2,5.2,1.1,7.2,3.1c2.1,2.1,3.5,4.8,4.1,7.7c0.7,3,0.5,6.2-0.4,9.1c-0.5,1.5-1.3,2.8-1.9,4.3c-0.3,0.8-0.3,1.4,0.2,2.1
			c0.1,0.1,0.1,0.2,0.2,0.2c0.1,0.1,0.1,0.1,0.2,0.2c0.8,0.6,1.5,0.4,2.3,0c1.3-0.7,2.6-1.3,4-1.8c2.8-0.8,5.7-1,8.6-0.5
			c2.9,0.5,5.7,1.8,7.9,3.8c2.2,2,3.2,4.4,3.5,7.4c0.3,3.4-0.5,6.7-2.1,9.6h0h2.3c1.7-3.5,2.3-7.4,1.6-11.2
			c-1-5.4-5.1-9.2-10.2-10.9C244.7,109.3,241.7,109,238.8,109.4L238.8,109.4z"/>
		<path class="st1" d="M215.7,125c2.2-1.3,4.3-2.6,6.4-4c-1.4,2.1-2.8,4.2-4,6.4c-1,1.7-1.9,3.4-2.8,5.1h0h2
			c0.8-1.4,1.5-2.8,2.3-4.2c2-3.5,4.2-6.8,6.5-10.1c0.2-0.3,0.1-0.8-0.2-1c-0.3-0.3-0.7-0.4-1-0.2c-3.3,2.3-6.7,4.5-10.1,6.5
			c-1.4,0.8-2.8,1.6-4.2,2.3v2C212.3,126.9,214,126,215.7,125L215.7,125z"/>
		<path class="st1" d="M210.9,132.1c-0.1,0.1-0.1,0.2-0.2,0.3h0h2.3c0.5-0.9,1-1.8,1.5-2.7c0.2-0.4,0.1-0.8-0.2-1
			c-0.2-0.3-0.6-0.4-1-0.2c-0.9,0.5-1.8,1-2.7,1.5v2.3C210.7,132.2,210.8,132.2,210.9,132.1L210.9,132.1z"/>
		<path class="st1" d="M212.7,91.8c-0.5,2.3-0.8,4.7-0.9,7.1c-0.4,0.1-0.8,0.2-1.2,0.3v1.9c2.4-0.9,5.1-1.1,7.2,0.1l0,0l0,0
			c3,1.7,4.1,6.2,3.8,9.4c-0.3,3.8-2.6,5.8-5.6,7.5c0.2-0.5,0.4-1.1,0.5-1.8c0.3-2.5-0.4-6.6-2.8-8c-0.9-0.5-1.9-0.6-3-0.5v1.8
			c0.8-0.1,1.5,0,2.1,0.3c0.9,0.6,1.5,1.8,1.8,3c-1.2,1-2.5,1.8-3.9,2.7v2.1c1.4-0.8,2.8-1.8,4.1-2.8c0,0.2,0,0.4,0,0.5
			c-0.1,2.7-2,4.2-4.1,5.3v2.4c4.2-2.2,8.4-4.6,12.1-7.3c0.1-0.1,0.1-0.1,0.2-0.2c0,0,0.1,0,0.1-0.1c7-6.1,11.2-19.8,1.2-25.7
			c-4.9-2.7-9.8-1.7-13.7,1.2v2.2C211.3,92.8,212,92.3,212.7,91.8L212.7,91.8z M222.7,113.5c0.3-0.8,0.5-1.7,0.6-2.7
			c0-0.4,0.1-0.9,0-1.4c0.9-0.4,1.8-0.8,2.7-1.2c0.2-0.1,0.3-0.2,0.5-0.2C225.6,110.1,224.2,112,222.7,113.5L222.7,113.5z
			 M227.7,105.2c-0.1,0-0.3,0.1-0.4,0.2c-0.6,0.7-1.6,1-2.5,1.4c-0.5,0.2-1.1,0.5-1.6,0.7c-0.1-0.8-0.3-1.6-0.5-2.3
			c2-1.3,3.9-2.7,5.7-4.3C228.4,102.3,228.2,103.8,227.7,105.2L227.7,105.2z M228.3,98.7c0,0-0.1,0-0.1,0.1
			c-1.9,1.8-3.9,3.3-6.1,4.8c-0.3-0.8-0.7-1.5-1.2-2.1c2.3-1.9,4.2-4,6-6.3C227.6,96.2,228.1,97.4,228.3,98.7L228.3,98.7z
			 M223.1,91.6c0.1,0,0.1,0.1,0.2,0.1s0.1,0.1,0.2,0.1c0.9,0.5,1.7,1.2,2.3,1.9c-1.7,2.4-3.7,4.6-6,6.5c-0.3-0.3-0.6-0.5-1-0.7
			c-0.3-0.2-0.7-0.4-1.1-0.5c0.5-2.9,1.3-5.7,2.6-8.5C221.2,90.7,222.1,91.1,223.1,91.6L223.1,91.6z M214.7,90.9
			c1.2-0.4,2.5-0.7,3.8-0.6c-1.2,2.7-2,5.4-2.5,8.3c-0.8-0.1-1.6-0.1-2.4,0c0.1-2.6,0.5-5.1,1.1-7.6C214.7,91,214.7,90.9,214.7,90.9
			L214.7,90.9z"/>
		<path class="st1" d="M210.6,118.2v1.8C210.7,119.5,210.7,118.8,210.6,118.2z"/>
		<path class="st1" d="M227.4,120c0,0,0,0.1-0.1,0.1c-0.1,0.1-0.1,0.1-0.2,0.2c-2.7,3.7-5.1,7.9-7.3,12.1h0h2.4c1-2.2,2.5-4,5.3-4.1
			c0.2,0,0.4,0,0.5,0c-1,1.3-1.9,2.7-2.8,4.1h0h2.1c0.8-1.3,1.7-2.6,2.7-3.9c1.2,0.3,2.5,0.8,3,1.8c0.3,0.6,0.4,1.3,0.3,2.1h0h1.8
			c0.1-1.1,0-2.2-0.5-3c-1.4-2.4-5.5-3.1-8-2.8c-0.6,0.1-1.2,0.3-1.8,0.5c1.7-3,3.7-5.3,7.5-5.6c3.2-0.3,7.7,0.8,9.4,3.8l0,0l0,0
			c1.2,2.1,1,4.8,0.1,7.2h0h1.9c0.1-0.4,0.2-0.8,0.3-1.2c2.4-0.1,4.8-0.4,7.1-0.9c-0.4,0.7-1,1.4-1.5,2.1h0h2.2
			c2.9-3.9,4-8.8,1.2-13.7C247.2,108.9,233.4,113,227.4,120L227.4,120z M252.2,128.4c0,0-0.1,0-0.1,0c-2.5,0.6-5.1,0.9-7.6,1.1
			c0.1-0.8,0.1-1.6,0-2.4c2.9-0.5,5.7-1.3,8.3-2.5C252.8,125.9,252.6,127.1,252.2,128.4L252.2,128.4z M251.2,119.6
			c0,0.1,0.1,0.1,0.1,0.2c0,0.1,0.1,0.1,0.1,0.2c0.5,0.9,0.9,1.9,1.1,2.8c-2.7,1.2-5.5,2.1-8.5,2.6c-0.1-0.4-0.3-0.7-0.5-1.1
			c-0.2-0.3-0.4-0.7-0.7-1c1.9-2.3,4-4.3,6.5-6C250,117.9,250.7,118.7,251.2,119.6L251.2,119.6z M244.3,114.8
			c1.3,0.2,2.5,0.7,3.6,1.4c-2.3,1.7-4.5,3.7-6.3,6c-0.6-0.5-1.3-0.8-2.1-1.2c1.4-2.2,3-4.2,4.8-6.1
			C244.3,114.8,244.3,114.8,244.3,114.8L244.3,114.8z M237.6,115.7c0.1-0.1,0.2-0.3,0.2-0.4c1.4-0.4,2.9-0.7,4.3-0.7
			c-1.6,1.8-3,3.7-4.3,5.7c-0.8-0.2-1.6-0.4-2.3-0.5c0.2-0.5,0.5-1.1,0.7-1.6C236.6,117.4,236.9,116.3,237.6,115.7L237.6,115.7z
			 M234.8,116.9c-0.4,0.9-0.8,1.8-1.2,2.7c-0.5,0-0.9,0-1.4,0c-1,0.1-1.9,0.3-2.7,0.6c1.5-1.5,3.5-2.9,5.5-3.9
			C235,116.6,234.9,116.8,234.8,116.9L234.8,116.9z"/>
		<path class="st1" d="M224.8,132.5L224.8,132.5c-0.6-0.1-1.3-0.1-1.9,0h0.1H224.8z"/>
	</g>
</g>
</svg>
